<svg width="250" height="126" viewBox="0 0 250 126" fill="none" xmlns="http://www.w3.org/2000/svg">
<path fill-rule="evenodd" clip-rule="evenodd" d="M63 88H154C154.515 88 155.017 87.9444 155.5 87.8389C155.983 87.9444 156.485 88 157 88H209C212.866 88 216 84.866 216 81C216 77.134 212.866 74 209 74H203C199.134 74 196 70.866 196 67C196 63.134 199.134 60 203 60H222C225.866 60 229 56.866 229 53C229 49.134 225.866 46 222 46H200C203.866 46 207 42.866 207 39C207 35.134 203.866 32 200 32H136C139.866 32 143 28.866 143 25C143 21.134 139.866 18 136 18H79C75.134 18 72 21.134 72 25C72 28.866 75.134 32 79 32H39C35.134 32 32 35.134 32 39C32 42.866 35.134 46 39 46H64C67.866 46 71 49.134 71 53C71 56.866 67.866 60 64 60H24C20.134 60 17 63.134 17 67C17 70.866 20.134 74 24 74H63C59.134 74 56 77.134 56 81C56 84.866 59.134 88 63 88ZM226 88C229.866 88 233 84.866 233 81C233 77.134 229.866 74 226 74C222.134 74 219 77.134 219 81C219 84.866 222.134 88 226 88Z" fill="#B7AA9C" fill-opacity="0.3"/>
<path fill-rule="evenodd" clip-rule="evenodd" d="M168.577 80.0748C166 82 163.488 83.8097 160.644 85.3737L160.809 99.457C160.822 100.562 159.937 101.467 158.832 101.48C158.383 101.486 157.945 101.339 157.589 101.066L144.926 91.3231C140.18 92.4156 135.173 93 130 93C99.6243 93 75 72.8528 75 48C75 23.1472 99.6243 3 130 3C160.376 3 185 23.1472 185 48C185 54.8787 183.114 61.397 179.741 67.2274C179.119 68.3027 178.446 69.3546 177.726 70.381C177.726 70.381 176.317 72.5 173.5 75.5C170.683 78.5 168.577 80.0748 168.577 80.0748Z" fill="#1B1611" stroke="#B7AA9C" stroke-width="2.5" stroke-linecap="round"/>
<path fill-rule="evenodd" clip-rule="evenodd" d="M162.853 35.5895C168.157 35.5895 173.266 34.957 178.051 33.7868C179.961 38.1364 181 42.8232 181 47.7074C181 54.0432 179.251 60.0469 176.123 65.4171C175.547 66.4075 174.923 67.3764 174.255 68.3218C173.2 69.8146 172.448 70.8687 171.785 71.7139C170.219 73.7135 169.155 74.5444 165.771 77.2505C163.515 79.0553 161.052 80.6906 158.415 82.1311L158.568 95.1029C158.58 96.1202 158.889 97.9878 157.865 98C157.449 98.0046 155.913 96.8367 155.583 96.5844L145.373 87.4666C140.972 88.4729 134.797 89.1555 130 89.1555C101.833 89.1555 79 70.5985 79 47.7074C79 28.961 94.3133 13.1215 115.328 8C120.832 23.8745 140.023 35.5895 162.853 35.5895ZM110.291 42.1483C106.986 42.1483 104.307 44.8448 104.307 48.1711C104.307 51.4974 106.986 54.1939 110.291 54.1939C113.596 54.1939 116.275 51.4974 116.275 48.1711C116.275 44.8448 113.596 42.1483 110.291 42.1483ZM129.241 42.1483C125.936 42.1483 123.257 44.8448 123.257 48.1711C123.257 51.4974 125.936 54.1939 129.241 54.1939C132.546 54.1939 135.225 51.4974 135.225 48.1711C135.225 44.8448 132.546 42.1483 129.241 42.1483ZM148.191 42.1483C144.886 42.1483 142.207 44.8448 142.207 48.1711C142.207 51.4974 144.886 54.1939 148.191 54.1939C151.496 54.1939 154.176 51.4974 154.176 48.1711C154.176 44.8448 151.496 42.1483 148.191 42.1483Z" fill="#B7AA9C" fill-opacity="0.3"/>
<path fill-rule="evenodd" clip-rule="evenodd" d="M110 42C113.314 42 116 44.6863 116 48C116 51.3137 113.314 54 110 54C106.686 54 104 51.3137 104 48C104 44.6863 106.686 42 110 42ZM129 42C132.314 42 135 44.6863 135 48C135 51.3137 132.314 54 129 54C125.686 54 123 51.3137 123 48C123 44.6863 125.686 42 129 42ZM148 42C151.314 42 154 44.6863 154 48C154 51.3137 151.314 54 148 54C144.686 54 142 51.3137 142 48C142 44.6863 144.686 42 148 42Z" fill="#1B1611" stroke="#B7AA9C" stroke-width="2.5"/>
<path d="M89.6619 33.311C88.7539 34.843 87.967 36.4328 87.3115 38.072" stroke="#B7AA9C" stroke-opacity="0.7" stroke-width="2.5" stroke-linecap="round"/>
<path d="M108.022 17.0732C101.469 20.2006 95.9373 24.6244 91.9395 29.9203" stroke="#B7AA9C" stroke-opacity="0.7" stroke-width="2.5" stroke-linecap="round"/>
</svg>
