<svg width="150" height="150" viewBox="0 0 150 150" fill="none" xmlns="http://www.w3.org/2000/svg">
<g clip-path="url(#clip0_4129_7160)">
<path d="M32.1099 102.13C32.6511 102.13 33.0899 101.691 33.0899 101.15C33.0899 100.609 32.6511 100.17 32.1099 100.17C31.5686 100.17 31.1299 100.609 31.1299 101.15C31.1299 101.691 31.5686 102.13 32.1099 102.13Z" fill="#CFCFCF"/>
<path d="M95.6602 61.1701C87.2902 61.1701 78.7702 60.8301 70.8002 58.6101C62.9802 56.4401 55.8002 52.2301 49.4002 47.3601C45.2102 44.1901 41.4002 41.6601 35.9602 42.0401C30.6382 42.3281 25.549 44.3154 21.4402 47.7101C14.5202 53.7701 15.5602 65.0001 18.3302 72.8601C22.4902 84.7301 35.1502 93.0001 45.9102 98.3501C58.3402 104.56 72.0002 108.17 85.6902 110.24C97.6902 112.07 113.11 113.39 123.51 105.56C133.06 98.3501 135.68 81.9101 133.34 70.8101C132.772 67.5309 131.026 64.5721 128.43 62.4901C121.72 57.5801 111.71 60.8601 104.17 61.0201C101.37 61.0801 98.5202 61.1501 95.6602 61.1701Z" fill="#B7AA9C" fill-opacity="0.3"/>
<path d="M78.2304 111.48C84.4657 111.48 89.5204 106.425 89.5204 100.19C89.5204 93.9546 84.4657 88.8999 78.2304 88.8999C71.9951 88.8999 66.9404 93.9546 66.9404 100.19C66.9404 106.425 71.9951 111.48 78.2304 111.48Z" fill="#B7AA9C"/>
<path d="M66.5638 29.7061C67.188 29.5669 67.8335 29.552 68.4635 29.6623C69.0934 29.7726 69.6955 30.0059 70.2353 30.3488C70.7751 30.6918 71.2421 31.1377 71.6095 31.6612C71.977 32.1846 72.2378 32.7753 72.377 33.3995L74.1811 41.4908L64.6551 43.6149L62.8509 35.5236C62.7113 34.8977 62.6968 34.2505 62.808 33.619C62.9192 32.9875 63.154 32.3841 63.499 31.8436C63.844 31.3031 64.2923 30.836 64.8182 30.4692C65.3442 30.1024 65.9374 29.8431 66.5638 29.7061Z" fill="#1B1611" stroke="#B7AA9C" stroke-linecap="round" stroke-linejoin="round"/>
<path d="M111.07 93.1801L53.1803 106.08C52.8208 106.161 52.4464 106.146 52.0941 106.038C51.7418 105.93 51.4238 105.732 51.1714 105.463C50.919 105.195 50.741 104.865 50.6549 104.507C50.5688 104.149 50.5775 103.774 50.6803 103.42L50.9203 102.59C52.9203 95.5001 54.6603 87.6901 53.0603 80.4901L49.6403 65.1301C46.7603 52.2201 54.5003 39.0701 67.3403 35.9001C70.4713 35.1228 73.7262 34.9797 76.9133 35.4791C80.1005 35.9785 83.1555 37.1104 85.8987 38.8081C88.6419 40.5058 91.0177 42.7351 92.8865 45.3647C94.7553 47.9943 96.0792 50.9712 96.7803 54.1201L100.31 70.0001C101.92 77.2001 106.78 83.5601 111.64 89.1001L112.21 89.7501C112.441 90.0285 112.597 90.361 112.664 90.7164C112.731 91.0717 112.706 91.4382 112.592 91.7814C112.478 92.1245 112.278 92.4329 112.012 92.6776C111.746 92.9224 111.422 93.0953 111.07 93.1801Z" fill="#1B1611" stroke="#B7AA9C" stroke-linecap="round" stroke-linejoin="round"/>
<path d="M68.2502 83.2799C68.2344 80.9442 69.0192 78.6736 70.4738 76.8461C71.9284 75.0186 73.9651 73.7445 76.2448 73.2359C78.5246 72.7274 80.9097 73.015 83.0031 74.0511C85.0965 75.0871 86.7719 76.8089 87.7502 78.9299" stroke="#B7AA9C" stroke-linecap="round" stroke-linejoin="round"/>
<path d="M86.1104 67.05C86.8947 67.05 87.5304 66.4142 87.5304 65.63C87.5304 64.8457 86.8947 64.21 86.1104 64.21C85.3262 64.21 84.6904 64.8457 84.6904 65.63C84.6904 66.4142 85.3262 67.05 86.1104 67.05Z" fill="#B7AA9C"/>
<path d="M64.0899 71.9601C64.8742 71.9601 65.5099 71.3244 65.5099 70.5401C65.5099 69.7559 64.8742 69.1201 64.0899 69.1201C63.3057 69.1201 62.6699 69.7559 62.6699 70.5401C62.6699 71.3244 63.3057 71.9601 64.0899 71.9601Z" fill="#B7AA9C"/>
<path d="M90.5698 28.2C91.1111 28.2 91.5499 27.7612 91.5499 27.22C91.5499 26.6788 91.1111 26.24 90.5698 26.24C90.0286 26.24 89.5898 26.6788 89.5898 27.22C89.5898 27.7612 90.0286 28.2 90.5698 28.2Z" fill="#B7AA9C"/>
<path d="M32.1099 102.13C32.6511 102.13 33.0899 101.691 33.0899 101.15C33.0899 100.609 32.6511 100.17 32.1099 100.17C31.5686 100.17 31.1299 100.609 31.1299 101.15C31.1299 101.691 31.5686 102.13 32.1099 102.13Z" fill="#B7AA9C"/>
<path d="M117.65 50.8899V55.1899" stroke="#B7AA9C" stroke-linecap="round" stroke-linejoin="round"/>
<path d="M115.5 53.04H119.8" stroke="#B7AA9C" stroke-linecap="round" stroke-linejoin="round"/>
<path d="M119.61 115.63V119.93" stroke="#B7AA9C" stroke-linecap="round" stroke-linejoin="round"/>
<path d="M117.46 117.78H121.76" stroke="#B7AA9C" stroke-linecap="round" stroke-linejoin="round"/>
<path d="M44.4297 34.5901V38.8901" stroke="#B7AA9C" stroke-linecap="round" stroke-linejoin="round"/>
<path d="M42.2803 36.74H46.5803" stroke="#B7AA9C" stroke-linecap="round" stroke-linejoin="round"/>
<path d="M75.5801 129.7C95.8545 129.7 112.29 128.675 112.29 127.41C112.29 126.145 95.8545 125.12 75.5801 125.12C55.3057 125.12 38.8701 126.145 38.8701 127.41C38.8701 128.675 55.3057 129.7 75.5801 129.7Z" fill="#B7AA9C" fill-opacity="0.3"/>
<path d="M110.65 48.4499C110.647 51.4912 109.438 54.4071 107.288 56.5575C105.137 58.708 102.221 59.9173 99.1799 59.9199C98.8058 59.9199 98.4319 59.8999 98.0599 59.8599L94.6599 65.4099L93.5999 58.4599C91.8335 57.4763 90.3584 56.0433 89.3242 54.306C88.2899 52.5686 87.7333 50.5888 87.7107 48.5671C87.6881 46.5453 88.2002 44.5536 89.1954 42.7935C90.1905 41.0335 91.6331 39.5678 93.3771 38.5449C95.1211 37.522 97.1046 36.9783 99.1264 36.9689C101.148 36.9594 103.137 37.4846 104.89 38.4911C106.644 39.4977 108.1 40.9499 109.111 42.7005C110.123 44.4512 110.654 46.4381 110.65 48.4599V48.4499Z" fill="#1B1611" stroke="#B7AA9C" stroke-linecap="round" stroke-linejoin="round"/>
<path d="M94.2801 49.61C94.9208 49.61 95.4401 49.0907 95.4401 48.45C95.4401 47.8094 94.9208 47.29 94.2801 47.29C93.6395 47.29 93.1201 47.8094 93.1201 48.45C93.1201 49.0907 93.6395 49.61 94.2801 49.61Z" stroke="#B7AA9C" stroke-miterlimit="10"/>
<path d="M99.1795 49.61C99.8202 49.61 100.34 49.0907 100.34 48.45C100.34 47.8094 99.8202 47.29 99.1795 47.29C98.5389 47.29 98.0195 47.8094 98.0195 48.45C98.0195 49.0907 98.5389 49.61 99.1795 49.61Z" stroke="#B7AA9C" stroke-miterlimit="10"/>
<path d="M104.08 49.61C104.721 49.61 105.24 49.0907 105.24 48.45C105.24 47.8094 104.721 47.29 104.08 47.29C103.439 47.29 102.92 47.8094 102.92 48.45C102.92 49.0907 103.439 49.61 104.08 49.61Z" stroke="#B7AA9C" stroke-miterlimit="10"/>
</g>
<defs>
<clipPath id="clip0_4129_7160">
<rect width="150" height="150" fill="white"/>
</clipPath>
</defs>
</svg>
